HIERARCHY
ROOT Hips
{
	OFFSET 0.0000 0.0000 0.0000
	CHANNELS 6 Xposition Yposition Zposition Zrotation Xrotation Yrotation
	JOINT Ab
	{
		OFFSET -0.0000 8.0846 -0.0000
		CHANNELS 3 Zrotation Xrotation Yrotation
		JOINT Chest
		{
			OFFSET -0.0000 25.0068 -0.0000
			CHANNELS 3 Zrotation Xrotation Yrotation
			JOINT Neck
			{
				OFFSET -0.0000 25.0068 0.0000
				CHANNELS 3 Zrotation Xrotation Yrotation
				JOINT Head
				{
					OFFSET -0.0000 10.7556 0.0000
					CHANNELS 3 Zrotation Xrotation Yrotation
					End Site
					{
						OFFSET -0.0000 16.6222 0.0000
					}
				}
			}
			JOINT LeftCollar
			{
				OFFSET -0.0000 25.0068 0.0000
				CHANNELS 3 Zrotation Xrotation Yrotation
				JOINT LeftShoulder
				{
					OFFSET 19.5556 -0.0000 0.0000
					CHANNELS 3 Zrotation Xrotation Yrotation
					JOINT LeftElbow
					{
						OFFSET 27.1828 0.0000 0.0000
						CHANNELS 3 Zrotation Xrotation Yrotation
						JOINT LeftWrist
						{
							OFFSET 23.3157 0.0000 0.0000
							CHANNELS 3 Zrotation Xrotation Yrotation
							End Site
							{
								OFFSET 0.0000 -14.6667 0.0000
							}
						}
					}
				}
			}
			JOINT RightCollar
			{
				OFFSET -0.0000 25.0068 0.0000
				CHANNELS 3 Zrotation Xrotation Yrotation
				JOINT RightShoulder
				{
					OFFSET -19.5556 0.0000 0.0000
					CHANNELS 3 Zrotation Xrotation Yrotation
					JOINT RightElbow
					{
						OFFSET -27.1828 0.0000 0.0000
						CHANNELS 3 Zrotation Xrotation Yrotation
						JOINT RightWrist
						{
							OFFSET -23.3157 0.0000 0.0000
							CHANNELS 3 Zrotation Xrotation Yrotation
							End Site
							{
								OFFSET -0.0000 -14.6667 0.0000
							}
						}
					}
				}
			}
		}
	}
	JOINT LeftHip
	{
		OFFSET 11.7333 0.0000 0.0000
		CHANNELS 3 Zrotation Xrotation Yrotation
		JOINT LeftKnee
		{
			OFFSET -0.0000 -40.8688 0.0000
			CHANNELS 3 Zrotation Xrotation Yrotation
			JOINT LeftAnkle
			{
				OFFSET -0.0000 -44.4337 0.0000
				CHANNELS 3 Zrotation Xrotation Yrotation
				End Site
				{
					OFFSET -0.0000 -4.8889 16.6222
				}
			}
		}
	}
	JOINT RightHip
	{
		OFFSET -11.7333 0.0000 0.0000
		CHANNELS 3 Zrotation Xrotation Yrotation
		JOINT RightKnee
		{
			OFFSET -0.0000 -40.8688 0.0000
			CHANNELS 3 Zrotation Xrotation Yrotation
			JOINT RightAnkle
			{
				OFFSET -0.0000 -44.4337 0.0000
				CHANNELS 3 Zrotation Xrotation Yrotation
				End Site
				{
					OFFSET -0.0000 -4.8889 16.6222
				}
			}
		}
	}
}
MOTION
Frames: 16
Frame Time: 0.010000
2.3761 81.5609 91.9058 1.2690 356.6342 165.2043 1.8923 4.9905 5.4802 353.4894 9.5814 6.1081 3.8171 334.9941 2.3660 0.8588 1.5206 1.4910 340.5294 358.4213 8.6306 295.5809 1.5367 12.9230 10.8730 356.7787 324.1646 88.0641 0.7783 337.6421 20.9107 359.7438 358.5291 19.0662 42.2044 51.5255 325.3656 348.5765 35.7631 274.7122 350.1554 4.7997 8.6033 323.5508 2.8442 351.7462 25.8799 6.4323 352.8506 350.0491 34.5967 358.9873 6.7745 359.5959 356.5144 35.0268 18.2287 5.5218 336.9581 345.8762 
2.2776 81.5789 90.2964 0.8167 356.7025 165.0468 1.2385 4.9837 5.5589 353.3970 9.3705 6.1546 4.1666 334.5462 2.3627 0.7389 2.0693 1.3911 340.4616 358.4677 8.5841 295.4360 1.6189 12.9367 11.4262 356.3329 324.4000 87.7332 1.0051 338.4612 20.9833 359.6975 358.2852 19.0085 42.2953 51.6539 325.5932 348.6492 35.7244 274.7432 349.8425 4.8382 8.3807 323.2990 2.6068 350.7545 27.9222 6.7864 353.0846 349.6773 34.1337 358.4674 6.1758 359.8644 355.7670 37.3543 17.7482 4.6937 340.4065 345.4238 
2.1897 81.6585 88.6557 0.4394 356.9347 165.0144 0.7548 5.0914 5.5624 353.1117 9.3620 6.1603 4.1365 334.1337 2.2103 1.2155 2.2886 1.2179 340.4586 358.5119 8.3837 295.4379 1.4356 12.8608 11.5620 356.2706 324.5534 88.2490 1.0489 339.2830 20.8911 359.7199 358.4607 20.5007 42.1794 50.3649 326.0064 348.7277 36.2838 274.3932 349.8825 5.2749 8.1174 323.4215 2.7727 349.7612 29.8228 6.9252 354.6768 351.0042 34.5642 358.0146 5.5267 0.5274 355.6758 39.9041 15.5597 5.7930 343.2614 347.3454 
2.0947 81.7709 87.0128 0.1454 357.1588 165.0751 0.4185 5.2250 5.5198 352.8321 9.1958 6.1160 4.0597 334.1469 2.0648 1.6209 2.2486 1.0881 340.4738 358.5773 7.9457 295.5781 0.7264 12.9588 11.3113 356.4002 324.5367 88.4243 1.3167 339.4176 20.9411 359.6988 358.3651 21.1123 42.1596 49.7668 326.7380 348.9573 36.5759 274.0207 350.0214 5.4653 7.7726 323.7908 3.2211 349.1435 31.3435 6.4786 354.6666 351.5922 34.4225 357.5563 4.7050 1.5177 356.2104 42.7418 11.5096 6.8659 346.8781 350.1491 
1.9935 81.9019 85.3757 359.9330 357.3281 165.1682 0.2875 5.3302 5.4288 352.4526 8.9772 6.0357 3.9813 334.2963 1.9492 1.9883 2.1225 0.9957 340.5618 358.6612 7.4405 295.8360 359.5157 13.0144 10.6568 356.6983 324.4030 88.4374 1.5973 338.8427 20.9276 359.6793 358.3548 21.7333 42.6230 49.2219 327.3160 349.1453 36.4662 272.9822 350.5332 5.0271 7.3780 324.3919 3.8403 348.9259 32.3802 6.1057 354.8351 352.3742 34.4725 357.1723 3.5655 2.2448 357.1643 45.9149 6.6686 6.5734 350.9076 352.1209 
1.8582 82.0242 83.7698 359.7480 357.3932 165.2921 0.3009 5.3555 5.2535 352.0633 8.7060 5.8729 3.9674 334.5324 1.9211 2.1089 2.1431 0.9817 340.5963 358.7254 7.1313 295.9360 359.5387 12.8245 10.4737 356.7228 324.5890 88.8641 1.4974 338.6791 20.8453 359.7160 358.3505 22.5658 43.2779 48.3432 327.6210 349.1659 36.6638 273.1419 350.4880 5.6365 6.8710 325.0060 4.4592 348.9799 33.1571 6.1907 355.1268 352.5528 34.1186 356.8491 2.0986 2.3257 357.5973 49.1858 4.4901 359.7873 356.9263 348.9247 
1.7201 82.1496 82.1993 359.6055 357.4466 165.3947 0.3372 5.4134 5.0595 351.7470 8.3829 5.6810 4.0850 334.7971 2.0434 2.0299 2.2357 1.0973 340.6662 358.7970 6.7898 296.0769 359.1630 12.6278 10.2197 356.7974 324.5583 88.2225 1.6966 337.9575 20.7003 359.7479 358.5862 23.8321 43.7229 47.2611 328.3865 349.5039 36.5035 272.3492 350.6195 5.4681 6.4408 325.6878 4.9410 348.8786 33.8611 5.9650 7.5609 356.8211 24.7388 356.6522 0.4322 2.0774 356.9268 53.0721 4.8934 6.6475 358.0556 352.2021 
1.5880 82.2718 80.6659 359.5094 357.5445 165.5127 0.8090 5.4795 4.5770 350.9058 8.3117 5.2788 4.1849 334.8351 2.2712 2.1609 2.4022 1.3097 340.9974 358.8567 6.9026 295.8986 359.8171 11.7525 10.2311 356.7474 324.9850 88.6023 1.4503 337.9414 20.6111 359.8089 359.2339 25.9240 44.0170 45.4272 328.9608 349.6697 36.6943 272.8910 350.9450 6.2054 6.0219 326.4364 5.3600 348.8270 34.5670 5.6024 1.0868 354.5988 23.7580 356.5350 358.7227 1.7585 355.8660 56.9078 5.8511 6.9499 0.4297 352.0521 
1.4941 82.4209 79.1444 359.4525 357.8061 165.5538 0.5266 5.7679 4.4946 351.0745 7.9694 5.1437 4.7248 334.9435 2.6610 1.3244 2.7385 1.5956 340.8634 358.8605 6.7857 296.0182 359.8723 11.2962 10.3656 356.6949 324.8517 87.6476 1.6603 337.5239 20.6029 359.8370 359.1333 25.5422 44.7041 46.0234 329.6576 350.0738 35.7200 273.4630 350.5245 6.2833 5.8060 327.4116 5.1556 348.0309 35.0952 5.5843 1.7836 353.6904 24.2891 356.5040 357.1027 1.9110 355.6504 60.5071 5.4007 5.6711 2.6672 351.0035 
1.3837 82.5700 77.6354 359.3017 358.1178 165.9565 0.2604 6.0430 4.1456 351.2932 7.7422 4.7492 4.7636 335.2708 2.6991 0.9405 2.7904 1.6334 340.6927 358.9009 6.1452 296.2082 359.9599 10.9423 10.0026 356.8701 324.8045 88.7283 1.3757 337.0873 20.5314 359.8184 359.0356 26.7627 45.0263 44.8736 330.1522 350.3142 35.5306 274.3770 350.7092 7.3434 5.0361 328.4548 4.5999 347.7916 35.3633 5.5192 2.0754 352.8628 24.4420 356.3436 355.6145 1.8323 355.9304 63.8915 5.1196 5.1245 3.3693 349.7420 
1.3421 82.7822 75.9492 359.2834 358.7994 166.2803 0.0768 6.2316 3.8305 351.4030 8.1085 4.4451 5.0130 335.3603 2.9377 0.6720 2.9709 1.8386 340.5857 358.9525 5.8623 296.3213 0.5246 10.1982 10.0506 356.7943 324.6954 88.6384 1.4831 337.2480 20.4166 359.8543 359.3456 28.9757 45.0206 42.8976 330.7610 350.5425 35.7553 275.8210 350.7068 8.8171 4.2959 330.3455 4.3915 347.9473 35.0830 5.1709 2.3747 352.1290 24.3245 356.3184 354.8416 2.0967 356.9833 66.4576 3.9843 6.0413 1.9925 347.4234 
1.2042 83.0181 74.5041 359.0825 358.8779 166.5515 359.9618 6.1669 3.5297 351.4130 8.1198 4.1378 5.1648 335.4599 3.1169 0.4867 3.1223 1.9909 340.3926 358.9819 5.6007 296.4854 2.0370 9.3161 10.5714 356.5396 324.6712 88.4395 1.6463 338.2690 20.4070 359.8823 359.4869 30.6693 45.1803 41.2455 331.1550 350.6569 35.7042 276.8426 350.3151 9.9069 3.5277 331.3518 4.4059 348.2719 35.0448 4.6018 2.5772 351.3942 24.3659 356.2490 353.1196 2.0225 357.9406 68.4801 2.3209 4.4746 0.7239 346.0071 
1.1106 83.2804 73.0631 359.0143 359.2655 167.2044 359.8444 6.4709 3.0939 351.5892 8.1651 3.6865 5.2880 335.5556 3.1625 0.2331 3.2265 2.0076 340.2890 359.0491 5.0766 296.7102 2.9143 8.3802 10.6196 356.5782 324.6066 88.8234 1.3061 338.8354 20.4651 359.9015 359.3947 32.6858 44.9520 39.2174 331.7017 350.8104 36.0436 278.1326 350.5392 10.8222 2.6331 332.7044 3.9248 348.6100 34.8383 4.2542 2.7590 350.7999 24.2823 356.2297 351.7657 1.6356 358.1681 70.6169 1.7133 3.1851 358.6992 345.7797 
1.0645 83.5881 71.6107 359.0779 359.6019 167.7001 359.7964 6.6696 2.7503 351.8300 8.2935 3.3316 5.4345 335.6336 3.2817 0.1359 3.2425 2.1096 340.0335 359.0254 5.5431 296.9255 7.7069 6.5623 12.6208 355.6833 325.6590 88.3859 1.1853 342.4903 20.4759 359.9294 359.6114 35.5578 44.2125 36.4305 332.5937 351.0408 36.8651 278.6827 351.6922 12.6260 2.0427 334.2016 3.7901 349.0276 34.5092 3.8155 2.5113 350.3604 23.9666 356.4139 350.4042 1.5450 359.5585 71.8993 359.3708 0.5978 357.6509 345.6250 
0.9801 83.9301 70.1699 359.1059 359.7493 168.1996 359.8316 6.6241 2.3959 352.0540 8.4901 2.9778 5.3532 335.5861 3.3267 0.2413 3.4747 2.1679 339.9737 359.0684 5.1631 297.2559 8.3561 5.4024 12.4896 355.9660 325.6321 89.4208 0.7600 342.6184 20.5755 359.9005 359.2753 36.5212 44.3822 35.5240 333.4593 351.3814 36.3304 278.1661 351.1060 14.1648 1.3450 335.5140 3.3726 349.5378 34.0149 3.5874 2.6319 349.8388 23.7542 356.4035 349.0411 1.5772 2.1587 72.5335 356.1687 0.0361 356.2422 345.4562 
0.9595 84.2935 68.6913 359.3744 0.0738 168.7638 359.9973 6.7425 2.0110 352.3900 8.7296 2.5914 5.6920 335.8292 3.5098 359.7196 3.2744 2.3013 339.9504 359.1108 4.8462 297.5835 9.1708 4.1143 12.4952 356.0519 325.6028 89.8901 0.4119 342.6906 20.6698 359.8431 358.9914 37.8003 44.4737 34.1318 334.0986 351.6364 35.9026 278.1760 350.9794 14.8343 0.9675 337.3181 2.4108 349.5839 32.9942 3.7272 2.7596 349.5041 23.6932 356.8109 347.7745 1.3522 3.3770 73.1197 354.6979 359.7927 354.8157 345.1021 
